<?xml version="1.0" encoding="iso-8859-1"?>
<!-- Generator: Adobe Illustrator 17.1.0, SVG Export Plug-In . SVG Version: 6.00 Build 0)  -->
<!DOCTYPE svg PUBLIC "-//W3C//DTD SVG 1.1//EN" "http://www.w3.org/Graphics/SVG/1.1/DTD/svg11.dtd">
<svg version="1.1" id="Capa_1" xmlns="http://www.w3.org/2000/svg" xmlns:xlink="http://www.w3.org/1999/xlink" x="0px" y="0px"
	viewBox="0 0 444.917 444.917" style="enable-background:new 0 0 444.917 444.917;" xml:space="preserve">
<g>
	<path style="fill:none;" d="M309.615,162.471c0.755,4.296,1.271,8.834,1.623,13.578c17.247-8.311,30.352-22.947,38.774-39.831
		c-5.172,5.172-10.773,9.854-16.799,13.954C325.869,155.169,317.966,159.273,309.615,162.471z"/>
	<path style="fill:#F7CF40;" d="M263.279,170.75c-3.692,0-7.423-0.141-11.191-0.425c-5.507-0.415-9.635-5.216-9.22-10.724
		c0.415-5.508,5.217-9.646,10.724-9.22c10.44,0.787,20.429,0.291,29.872-1.375c-5.696-7.299-15.114-9.617-30.624-9.617
		c-35.786,0-39.16,12.319-39.16,69.732c0,39.151,5.64,55.354,18.462,61.564c0.906,0.241,1.766,0.602,2.556,1.074
		c5.043,1.827,11.064,2.425,18.143,2.425c5.433,0,10.242-0.353,14.465-1.342c0.85-0.373,1.76-0.626,2.707-0.75
		c15.316-4.962,21.983-20.401,21.983-62.971c0-17.607-0.32-30.967-1.792-41.037C281.546,169.842,272.545,170.75,263.279,170.75z"/>
	<path style="fill:#B4F0DF;" d="M63.54,106.158c-5.896,8.596-6.653,19.841-4.922,24.327c1.355,3.512,2.73,3.69,4.861,3.69
		c2.444,0,5.058-2.606,6.078-5.021c4.181-9.903,6.113-23.2,7.356-33.172C71.359,97.885,66.883,101.286,63.54,106.158z"/>
	<path style="fill:#FFEBD4;" d="M252.84,20c-20.993,0-38.072,17.072-38.072,38.057c0,20.995,17.079,38.076,38.072,38.076
		c20.99,0,38.066-17.081,38.066-38.076C290.905,37.072,273.829,20,252.84,20z"/>
	<path style="fill:#B4F0DF;" d="M371.326,383.078c-6.065,0-11,4.935-11,11c0,6.065,4.935,11,11,11s11-4.935,11-11
		C382.326,388.012,377.391,383.078,371.326,383.078z"/>
	<path d="M397.101,74.175h-88.488c1.482-5.122,2.293-10.526,2.293-16.119C310.905,26.044,284.857,0,252.84,0
		c-32.021,0-58.072,26.044-58.072,58.057c0,5.593,0.811,10.997,2.293,16.119H88.721c-17.73,0-32.53,7.34-41.673,20.669
		c-9.924,14.467-11.078,32.502-7.089,42.84c4.103,10.634,12.456,16.491,23.52,16.491c11.898,0,20.879-8.66,24.502-17.242
		c5.779-13.687,7.843-30.728,9.21-42.006c0.03-0.246,0.06-0.498,0.091-0.752h110.132c10.648,13.366,27.047,21.957,45.425,21.957
		c18.375,0,34.773-8.591,45.42-21.957h57.513c-11.555,23.383-29.656,40.215-52.207,49.168
		c-7.708-14.909-22.462-23.954-50.726-23.954c-59.16,0-59.16,39.599-59.16,89.732c0,37.696,5.101,65.103,26.199,77.569
		c0.786,22.202-1.68,57.299-21.711,79.467c-11.679,12.924-28.323,19.877-49.47,20.665c-5.056,0.188-9.174,4.123-9.594,9.165
		l-3.167,38.101c-0.458,5.503,3.634,10.336,9.137,10.794c0.282,0.023,0.562,0.035,0.84,0.035c5.147,0,9.52-3.95,9.955-9.172
		l2.46-29.589c22.63-2.522,40.995-11.445,54.679-26.589c22.381-24.77,26.993-60.738,26.985-86.231
		c3.952,0.562,8.227,0.849,12.847,0.849c2.559,0,5.006-0.093,7.357-0.267l-12.692,140.096c-0.253,2.798,0.682,5.573,2.576,7.647
		c1.895,2.074,4.574,3.255,7.383,3.255h32.338c5.523,0,10-4.477,10-10c0-5.523-4.477-10-10-10h-21.391L280.7,289.268
		c25.385-10.941,31.295-39.585,31.295-80.147c0-3.966,0-7.864-0.03-11.684c20.575-7.691,38.499-22.823,51.028-43.308
		c11.124-18.188,17.343-39.132,17.97-59.955h16.137c5.523,0,10-4.477,10-10C407.101,78.652,402.624,74.175,397.101,74.175z
		 M69.557,129.154c-1.02,2.415-3.633,5.021-6.078,5.021c-2.131,0-3.506-0.178-4.861-3.69c-1.731-4.486-0.975-15.731,4.922-24.327
		c3.342-4.872,7.818-8.273,13.372-10.176C75.67,105.955,73.738,119.252,69.557,129.154z M252.84,96.132
		c-20.993,0-38.072-17.081-38.072-38.076C214.768,37.072,231.847,20,252.84,20c20.99,0,38.066,17.072,38.066,38.057
		C290.905,79.052,273.829,96.132,252.84,96.132z M270.011,272.092c-0.947,0.124-1.857,0.377-2.707,0.75
		c-4.223,0.989-9.032,1.342-14.465,1.342c-7.079,0-13.099-0.597-18.143-2.425c-0.79-0.473-1.65-0.834-2.556-1.074
		c-12.822-6.21-18.462-22.413-18.462-61.564c0-57.413,3.374-69.732,39.16-69.732c15.51,0,24.928,2.318,30.624,9.617
		c-9.443,1.666-19.432,2.163-29.872,1.375c-5.506-0.426-10.309,3.712-10.724,9.22c-0.415,5.507,3.712,10.309,9.22,10.724
		c3.768,0.284,7.499,0.425,11.191,0.425c9.266,0,18.267-0.908,26.925-2.666c1.472,10.07,1.792,23.43,1.792,41.037
		C291.995,251.691,285.327,267.13,270.011,272.092z M311.238,176.048c-0.352-4.744-0.868-9.282-1.623-13.578
		c8.352-3.198,16.254-7.302,23.599-12.299c6.025-4.1,11.627-8.782,16.799-13.954C341.59,153.102,328.485,167.737,311.238,176.048z"
		/>
	<path d="M371.326,363.078c-17.093,0-31,13.907-31,31c0,13.594,8.8,25.165,21,29.335v11.503c0,5.523,4.477,10,10,10
		c5.523,0,10-4.477,10-10v-11.503c12.2-4.171,21-15.741,21-29.335C402.326,376.984,388.419,363.078,371.326,363.078z
		 M371.326,405.078c-6.065,0-11-4.935-11-11c0-6.065,4.935-11,11-11s11,4.935,11,11
		C382.326,400.143,377.391,405.078,371.326,405.078z"/>
</g>
<g>
</g>
<g>
</g>
<g>
</g>
<g>
</g>
<g>
</g>
<g>
</g>
<g>
</g>
<g>
</g>
<g>
</g>
<g>
</g>
<g>
</g>
<g>
</g>
<g>
</g>
<g>
</g>
<g>
</g>
</svg>
