<?xml version="1.0"?>
<svg xmlns:rdf="http://www.w3.org/1999/02/22-rdf-syntax-ns#" xmlns="http://www.w3.org/2000/svg" xmlns:cc="http://creativecommons.org/ns#" xmlns:dc="http://purl.org/dc/elements/1.1/" xmlns:svg="http://www.w3.org/2000/svg" id="svg2" viewBox="0 0 300 300" version="1.1">
  <g id="layer1" transform="translate(0 -752.36)">
    <text id="text3042" font-size="20px" xml:space="preserve" transform="translate(0 62.362)" y="733.42126" x="1016.2135" font-family="Plantagenet Cherokee" fill="#000000">
      <tspan id="tspan3044" y="733.42126" x="1016.2135"/>
    </text>
    <g id="g5042" transform="matrix(.92193 0 0 .92193 39.407 45.118)">
      <g id="g5558" fill="#d5d5d5" transform="matrix(.94393 0 0 .94393 14.85 31.044)">
        <path id="path4753" fill="#000" d="m258.54 793.91c-0.32511 0.1199-0.46984 0.5433-0.70687 1.2991-0.30524 0.97283-3.5574 9.3098-7.2298 18.515-10.594 26.555-21.663 54.387-29.028 73.048-5.7203 14.494-7.0937 17.538-8.669 19.096-2.1462 2.122-4.1151 6.6738-26.73 61.854-15.005 36.611-15.211 37.011-21.239 41.4-3.0334 2.2084-5.2419 2.9459-10.07 3.3467-5.9649 0.4954-12.938-1.0805-28.991-6.5313-23.829-8.0909-46.538-14.178-75.105-20.149-28.427-5.9424-58.374-8.5381-68.231-5.9158-13.135 3.4942-23.535 12.378-28.829 24.676-4.6487 10.8-5.7289 16.78-5.3429 29.169 0.74169 23.8 9.1946 43.68 24.879 58.535 6.2177 5.8885 15.027 10.515 23.14 12.155 7.7792 1.5726 22.685 1.6315 35.387 0.1415 36.864-4.324 99.495-21.699 121.59-33.717 11.559-6.2854 23.874-18.748 36.14-36.613 3.7609-5.4775 5.2805-8.3862 9.352-17.674 16.301-37.184 26.194-62.005 31.8-79.814 2.7271-8.6624 5.2773-16.747 5.6776-17.979 0.40025-1.232 0.45183-3.2748 0.0981-4.5239-0.70914-2.5044-1.9914 1.0353 20.174-55.29 4.9086-12.473 11.586-29.534 14.857-37.919 3.2704-8.3848 6.1783-15.712 6.4705-16.281 0.4707-0.92134-0.14789-1.3818-5.729-4.233l-6.2727-3.2142-1.5301 3.9026c-0.83926 2.1365-2.8258 7.0772-4.4181 10.984-1.5923 3.9065-3.5877 9.0909-4.4304 11.533-1.5596 4.5218-3.2041 8.9034-9.1544 24.444-1.8402 4.8059-7.368 19.263-12.297 32.136-4.9289 12.873-9.0998 23.887-9.2498 24.502-0.26755 1.0978-1.5475 1.3212-3.1362 0.50961-0.85277-0.43562-0.63599-1.2188 3.6909-12.293 3.4301-8.7785 16.126-40.604 20.155-50.547 0.82669-2.0402 4.1262-10.409 7.3388-18.618 3.2128-8.2091 7.0436-17.748 8.5239-21.199l2.6885-6.2681-2.8612-1.4747c-1.4007-0.71551-2.1151-1.0602-2.5529-1.0213-0.0545 0.004-0.11733 0.0107-0.16371 0.0278zm-40.29 115.03c0.12331-0.0214 0.24793-0.0331 0.37206-0.0419 1.6536-0.11648 3.2702 0.82186 2.4844 2.3598-0.58713 1.1492-1.2172 1.31-3.2037 0.85799-2.262-0.5147-2.3885-0.6434-1.7729-1.7641 0.44071-0.80226 1.2576-1.2653 2.12-1.4118zm-216.1 103.16c0.38957-0.074 0.79301-0.1374 1.1876-0.2009 13.89-2.2291 30.877 1.9189 45.027 2.2175 25.722 0.5427 51.724 3.4176 76.487 10.395 8.8698 2.4992 20.137 3.5065 25.305 11.136 4.2744 6.3096 4.6916 16.314 0.76988 22.849-7.1432 11.902-14.888 9.9779-37.384 18.31-22.496 8.3318-80.344 28.391-113.12 15.939-9.6686-5.7003-13.783-18.546-16.238-29.499-3.1705-14.144-7.4073-32.993 2.6824-43.4 4.1983-4.33 9.4432-6.6404 15.286-7.7467zm72.358 9.6406-79.231 13.722a3.9877 3.9877 0 1 0 1.371 7.8558l79.231-13.722a3.9877 3.9877 0 1 0 -1.371 -7.8559zm28.752 10.342-112.53 19.314a3.9877 3.9877 0 1 0 1.3507 7.8593l112.53-19.2a3.9877 3.9877 0 1 0 -1.3508 -7.8593zm21.339 11.596-126.11 21.591a3.9877 3.9877 0 1 0 1.3507 7.8594l126.11-21.6a3.9877 3.9877 0 1 0 -1.3507 -7.8594zm-16.917 18.027-97.745 16.833a3.9877 3.9877 0 1 0 1.3507 7.8593l97.745-16.833a3.9877 3.9877 0 1 0 -1.3507 -7.8593z"/>
      </g>
    </g>
    <text id="text4266" font-size="20px" xml:space="preserve" transform="translate(0 62.362)" y="748.57141" x="552.85712" font-family="Plantagenet Cherokee" fill="#000000">
      <tspan id="tspan4268" y="748.57141" x="552.85712"/>
    </text>
  </g>
  <metadata>
    <rdf:RDF>
      <cc:Work>
        <dc:format>image/svg+xml</dc:format>
        <dc:type rdf:resource="http://purl.org/dc/dcmitype/StillImage"/>
        <cc:license rdf:resource="http://creativecommons.org/licenses/publicdomain/"/>
        <dc:publisher>
          <cc:Agent rdf:about="http://openclipart.org/">
            <dc:title>Openclipart</dc:title>
          </cc:Agent>
        </dc:publisher>
        <dc:title>Golf Club</dc:title>
        <dc:date>2012-06-13T12:26:35</dc:date>
        <dc:description>portion of golf club</dc:description>
        <dc:source>http://openclipart.org/detail/170643/golf-club-by-last-dino-170643</dc:source>
        <dc:creator>
          <cc:Agent>
            <dc:title>Last-Dino</dc:title>
          </cc:Agent>
        </dc:creator>
        <dc:subject>
          <rdf:Bag>
            <rdf:li>b/w</rdf:li>
            <rdf:li>black</rdf:li>
            <rdf:li>bw</rdf:li>
            <rdf:li>clip art</rdf:li>
            <rdf:li>clipart</rdf:li>
            <rdf:li>club</rdf:li>
            <rdf:li>golf</rdf:li>
            <rdf:li>icon</rdf:li>
            <rdf:li>mono</rdf:li>
            <rdf:li>monochrome</rdf:li>
            <rdf:li>open</rdf:li>
            <rdf:li>outdoors</rdf:li>
            <rdf:li>outside</rdf:li>
            <rdf:li>sport</rdf:li>
            <rdf:li>white</rdf:li>
          </rdf:Bag>
        </dc:subject>
      </cc:Work>
      <cc:License rdf:about="http://creativecommons.org/licenses/publicdomain/">
        <cc:permits rdf:resource="http://creativecommons.org/ns#Reproduction"/>
        <cc:permits rdf:resource="http://creativecommons.org/ns#Distribution"/>
        <cc:permits rdf:resource="http://creativecommons.org/ns#DerivativeWorks"/>
      </cc:License>
    </rdf:RDF>
  </metadata>
</svg>
