<?xml version="1.0" encoding="iso-8859-1"?>
<!-- Generator: Adobe Illustrator 19.0.0, SVG Export Plug-In . SVG Version: 6.00 Build 0)  -->
<svg version="1.1" id="Layer_1" xmlns="http://www.w3.org/2000/svg" xmlns:xlink="http://www.w3.org/1999/xlink" x="0px" y="0px"
	 viewBox="0 0 500.8 500.8" style="enable-background:new 0 0 500.8 500.8;" xml:space="preserve">
<polygon style="fill:#159347;" points="392.8,290.4 0,372.8 0,458.4 496,458.4 496,290.4 "/>
<polygon style="fill:#057F37;" points="393.6,367.2 0,372.8 0,458.4 496,458.4 496,290.4 "/>
<circle style="fill:#D8D6CB;" cx="176.8" cy="288.8" r="168"/>
<path style="fill:#CCCAB6;" d="M296,169.6c65.6,65.6,65.6,172,0,237.6s-172,65.6-237.6,0"/>
<path style="fill:#BFBCA6;" d="M51.2,260c0,11.488,9.313,20.8,20.8,20.8c4.364,0,8.409-1.349,11.754-3.646
	C81.08,278.95,77.863,280,74.4,280c-9.278,0-16.8-7.522-16.8-16.8s7.522-16.8,16.8-16.8s16.8,7.522,16.8,16.8
	c0,5.203-2.366,9.851-6.08,12.933c4.684-3.814,7.68-9.622,7.68-16.133c0-11.487-9.312-20.8-20.8-20.8
	C60.513,239.2,51.2,248.512,51.2,260z"/>
<path style="fill:#AAA799;" d="M91.2,263.2c0-9.278-7.522-16.8-16.8-16.8s-16.8,7.522-16.8,16.8c0,9.278,7.522,16.8,16.8,16.8
	c3.463,0,6.68-1.05,9.354-2.846c0.473-0.318,0.929-0.659,1.366-1.021C88.834,273.051,91.2,268.403,91.2,263.2z"/>
<path style="fill:#BFBCA6;" d="M126.4,260c0,11.488,9.312,20.8,20.8,20.8c4.364,0,8.409-1.349,11.754-3.646
	C156.28,278.95,153.063,280,149.6,280c-9.278,0-16.8-7.522-16.8-16.8s7.522-16.8,16.8-16.8s16.8,7.522,16.8,16.8
	c0,5.203-2.366,9.851-6.08,12.933c4.684-3.814,7.68-9.622,7.68-16.133c0-11.487-9.313-20.8-20.8-20.8
	C135.712,239.2,126.4,248.512,126.4,260z"/>
<path style="fill:#AAA799;" d="M166.4,263.2c0-9.278-7.522-16.8-16.8-16.8s-16.8,7.522-16.8,16.8c0,9.278,7.522,16.8,16.8,16.8
	c3.463,0,6.68-1.05,9.354-2.846c0.473-0.318,0.929-0.659,1.366-1.021C164.034,273.051,166.4,268.403,166.4,263.2z"/>
<path style="fill:#BFBCA6;" d="M202.4,260c0,11.488,9.312,20.8,20.8,20.8c11.487,0,20.8-9.312,20.8-20.8
	c0-11.487-9.313-20.8-20.8-20.8C211.712,239.2,202.4,248.512,202.4,260z M241.6,263.2c0,9.278-7.522,16.8-16.8,16.8
	s-16.8-7.522-16.8-16.8s7.522-16.8,16.8-16.8S241.6,253.922,241.6,263.2z"/>
<circle style="fill:#AAA799;" cx="224.8" cy="263.2" r="16.8"/>
<path style="fill:#BFBCA6;" d="M298.4,280.8c11.487,0,20.8-9.312,20.8-20.8c0-11.487-9.313-20.8-20.8-20.8
	c-11.488,0-20.8,9.313-20.8,20.8C277.6,271.488,286.912,280.8,298.4,280.8z M300,246.4c9.278,0,16.8,7.522,16.8,16.8
	S309.278,280,300,280s-16.8-7.522-16.8-16.8S290.722,246.4,300,246.4z"/>
<circle style="fill:#AAA799;" cx="300" cy="263.2" r="16.8"/>
<g>
	<path style="fill:#BFBCA6;" d="M85.12,164.133c4.684-3.814,7.68-9.622,7.68-16.133c0-1.523-0.174-3.003-0.484-4.433
		c-0.78,0.455-1.559,0.911-2.331,1.378c0.777,1.935,1.216,4.042,1.216,6.254C91.2,156.403,88.834,161.052,85.12,164.133z"/>
	<path style="fill:#BFBCA6;" d="M83.755,165.154C81.081,166.95,77.863,168,74.4,168c-3.952,0-7.577-1.374-10.446-3.657
		c-0.676,0.613-1.34,1.239-2.006,1.863c2.981,1.649,6.405,2.594,10.053,2.594C76.364,168.8,80.41,167.451,83.755,165.154z"/>
</g>
<path style="fill:#AAA799;" d="M83.755,165.154c0.473-0.318,0.928-0.658,1.365-1.021c3.714-3.082,6.08-7.73,6.08-12.933
	c0-2.213-0.439-4.32-1.216-6.254c-9.305,5.627-18.02,12.13-26.03,19.397C66.823,166.626,70.448,168,74.4,168
	C77.863,168,81.081,166.95,83.755,165.154z"/>
<path style="fill:#BFBCA6;" d="M147.2,127.2c-11.488,0-20.8,9.313-20.8,20.8c0,11.488,9.312,20.8,20.8,20.8
	c4.364,0,8.41-1.349,11.755-3.646c-2.674,1.796-5.891,2.846-9.355,2.846c-9.278,0-16.8-7.522-16.8-16.8s7.522-16.8,16.8-16.8
	s16.8,7.522,16.8,16.8c0,5.203-2.366,9.852-6.08,12.933c4.684-3.814,7.68-9.622,7.68-16.133C168,136.512,158.688,127.2,147.2,127.2z
	"/>
<path style="fill:#AAA799;" d="M166.4,151.2c0-9.278-7.522-16.8-16.8-16.8s-16.8,7.522-16.8,16.8s7.522,16.8,16.8,16.8
	c3.463,0,6.681-1.05,9.355-2.846c0.473-0.318,0.928-0.658,1.365-1.021C164.034,161.052,166.4,156.403,166.4,151.2z"/>
<path style="fill:#BFBCA6;" d="M202.4,148c0,11.488,9.312,20.8,20.8,20.8c11.487,0,20.8-9.313,20.8-20.8
	c0-6.762-3.241-12.751-8.238-16.55c-4.202-1.575-8.48-2.995-12.833-4.236C211.567,127.361,202.4,136.604,202.4,148z M241.6,151.2
	c0,9.278-7.522,16.8-16.8,16.8s-16.8-7.522-16.8-16.8s7.522-16.8,16.8-16.8S241.6,141.922,241.6,151.2z"/>
<circle style="fill:#AAA799;" cx="224.8" cy="151.2" r="16.8"/>
<path style="fill:#BFBCA6;" d="M293.825,168.279c-1.241-1.205-2.495-2.396-3.773-3.563c-0.851-0.627-1.638-1.33-2.355-2.103
	c-2.815-2.476-5.714-4.857-8.691-7.143C281.475,161.876,287.011,166.747,293.825,168.279z"/>
<path style="fill:#AAA799;" d="M290.052,164.716c-0.777-0.71-1.565-1.408-2.355-2.103
	C288.414,163.386,289.202,164.089,290.052,164.716z"/>
<path style="fill:#BFBCA6;" d="M32,337.6c4.364,0,8.409-1.349,11.754-3.646c-2.674,1.796-5.891,2.846-9.354,2.846
	c-9.278,0-16.8-7.522-16.8-16.8s7.522-16.8,16.8-16.8s16.8,7.522,16.8,16.8c0,5.203-2.366,9.851-6.08,12.933
	c4.684-3.814,7.68-9.622,7.68-16.133c0-11.487-9.312-20.8-20.8-20.8s-20.8,9.313-20.8,20.8c0,0.188,0.023,0.37,0.028,0.557
	c0.381,2.227,0.807,4.439,1.275,6.635C15.434,331.929,23.045,337.6,32,337.6z"/>
<path style="fill:#AAA799;" d="M51.2,320c0-9.278-7.522-16.8-16.8-16.8s-16.8,7.522-16.8,16.8s7.522,16.8,16.8,16.8
	c3.463,0,6.68-1.05,9.354-2.846c0.473-0.318,0.929-0.659,1.366-1.021C48.834,329.851,51.2,325.203,51.2,320z"/>
<path style="fill:#BFBCA6;" d="M107.2,337.6c4.364,0,8.409-1.349,11.754-3.646c-2.674,1.796-5.891,2.846-9.354,2.846
	c-9.278,0-16.8-7.522-16.8-16.8s7.522-16.8,16.8-16.8s16.8,7.522,16.8,16.8c0,5.203-2.366,9.851-6.08,12.933
	c4.684-3.814,7.68-9.622,7.68-16.133c0-11.487-9.313-20.8-20.8-20.8c-11.488,0-20.8,9.313-20.8,20.8
	C86.4,328.288,95.712,337.6,107.2,337.6z"/>
<path style="fill:#AAA799;" d="M126.4,320c0-9.278-7.522-16.8-16.8-16.8s-16.8,7.522-16.8,16.8s7.522,16.8,16.8,16.8
	c3.463,0,6.68-1.05,9.354-2.846c0.473-0.318,0.929-0.659,1.366-1.021C124.034,329.851,126.4,325.203,126.4,320z"/>
<path style="fill:#BFBCA6;" d="M183.2,337.6c11.487,0,20.8-9.312,20.8-20.8c0-11.487-9.313-20.8-20.8-20.8
	c-11.488,0-20.8,9.313-20.8,20.8C162.4,328.288,171.712,337.6,183.2,337.6z M184.8,303.2c9.278,0,16.8,7.522,16.8,16.8
	s-7.522,16.8-16.8,16.8S168,329.278,168,320S175.522,303.2,184.8,303.2z"/>
<circle style="fill:#AAA799;" cx="184.8" cy="320" r="16.8"/>
<path style="fill:#BFBCA6;" d="M279.2,316.8c0-11.487-9.313-20.8-20.8-20.8c-11.488,0-20.8,9.313-20.8,20.8
	c0,11.488,9.313,20.8,20.8,20.8C269.888,337.6,279.2,328.288,279.2,316.8z M243.2,320c0-9.278,7.522-16.8,16.8-16.8
	c9.278,0,16.8,7.522,16.8,16.8s-7.522,16.8-16.8,16.8S243.2,329.278,243.2,320z"/>
<circle style="fill:#AAA799;" cx="260" cy="320" r="16.8"/>
<path style="fill:#BFBCA6;" d="M335.2,336.8c-9.278,0-16.8-7.522-16.8-16.8s7.522-16.8,16.8-16.8c3.214,0,6.206,0.919,8.759,2.484
	c0.202-2.028,0.359-4.07,0.488-6.118c-3.323-2.25-7.331-3.565-11.647-3.565c-11.487,0-20.8,9.313-20.8,20.8
	c0,11.488,9.313,20.8,20.8,20.8c1.719,0,3.38-0.231,4.977-0.625c0.041-0.137,0.082-0.275,0.123-0.412
	C337.019,336.706,336.121,336.8,335.2,336.8z"/>
<path style="fill:#AAA799;" d="M318.4,320c0,9.278,7.522,16.8,16.8,16.8c0.921,0,1.819-0.094,2.7-0.237
	c2.943-9.941,4.999-20.263,6.059-30.88c-2.553-1.565-5.545-2.484-8.759-2.484C325.922,303.2,318.4,310.722,318.4,320z"/>
<g>
	<path style="fill:#BFBCA6;" d="M51.2,207.2c0,5.203-2.366,9.852-6.08,12.933c4.684-3.814,7.68-9.622,7.68-16.133
		c0-7.26-3.725-13.643-9.362-17.364c-1.192,1.553-2.364,3.122-3.502,4.717C46.49,193.644,51.2,199.864,51.2,207.2z"/>
	<path style="fill:#BFBCA6;" d="M43.755,221.154C41.081,222.95,37.863,224,34.4,224c-4.161,0-7.961-1.521-10.896-4.027
		c-0.369,0.821-0.727,1.649-1.084,2.478c2.869,1.493,6.122,2.349,9.58,2.349C36.364,224.8,40.41,223.451,43.755,221.154z"/>
</g>
<path style="fill:#AAA799;" d="M43.755,221.154c0.473-0.318,0.928-0.658,1.365-1.021c3.714-3.082,6.08-7.73,6.08-12.933
	c0-7.336-4.71-13.556-11.264-15.847c-6.369,8.93-11.886,18.51-16.432,28.62C26.439,222.479,30.239,224,34.4,224
	C37.863,224,41.081,222.95,43.755,221.154z"/>
<path style="fill:#BFBCA6;" d="M107.2,183.2c-11.488,0-20.8,9.313-20.8,20.8c0,11.488,9.312,20.8,20.8,20.8
	c4.364,0,8.41-1.349,11.755-3.646c-2.674,1.796-5.891,2.846-9.355,2.846c-9.278,0-16.8-7.522-16.8-16.8s7.522-16.8,16.8-16.8
	s16.8,7.522,16.8,16.8c0,5.203-2.366,9.852-6.08,12.933c4.684-3.814,7.68-9.622,7.68-16.133C128,192.512,118.688,183.2,107.2,183.2z
	"/>
<path style="fill:#AAA799;" d="M126.4,207.2c0-9.278-7.522-16.8-16.8-16.8s-16.8,7.522-16.8,16.8s7.522,16.8,16.8,16.8
	c3.463,0,6.681-1.05,9.355-2.846c0.473-0.318,0.928-0.658,1.365-1.021C124.034,217.052,126.4,212.403,126.4,207.2z"/>
<path style="fill:#BFBCA6;" d="M162.4,204c0,11.488,9.312,20.8,20.8,20.8c11.487,0,20.8-9.313,20.8-20.8s-9.313-20.8-20.8-20.8
	C171.712,183.2,162.4,192.512,162.4,204z M184.8,190.4c9.278,0,16.8,7.522,16.8,16.8s-7.522,16.8-16.8,16.8s-16.8-7.522-16.8-16.8
	S175.522,190.4,184.8,190.4z"/>
<circle style="fill:#AAA799;" cx="184.8" cy="207.2" r="16.8"/>
<path style="fill:#BFBCA6;" d="M258.4,224.8c11.487,0,20.8-9.313,20.8-20.8s-9.313-20.8-20.8-20.8c-11.488,0-20.8,9.313-20.8,20.8
	C237.6,215.488,246.912,224.8,258.4,224.8z M260,190.4c9.278,0,16.8,7.522,16.8,16.8S269.278,224,260,224s-16.8-7.522-16.8-16.8
	S250.722,190.4,260,190.4z"/>
<circle style="fill:#AAA799;" cx="260" cy="207.2" r="16.8"/>
<path style="fill:#BFBCA6;" d="M331.746,223.77c-8.014-1.275-14.146-8.197-14.146-16.57c0-2.647,0.629-5.142,1.72-7.369
	c-1.389-2.221-2.829-4.406-4.317-6.556C313.109,196.41,312,200.071,312,204c0,11.269,8.968,20.423,20.154,20.767
	C332.017,224.436,331.885,224.101,331.746,223.77z"/>
<path style="fill:#AAA799;" d="M331.746,223.77c-3.507-8.346-7.674-16.344-12.426-23.94c-1.091,2.227-1.72,4.722-1.72,7.369
	C317.6,215.573,323.732,222.495,331.746,223.77z"/>
<path style="fill:#BFBCA6;" d="M83.754,391.554c-2.674,1.796-5.891,2.846-9.354,2.846c-9.278,0-16.8-7.522-16.8-16.8
	s7.522-16.8,16.8-16.8s16.8,7.522,16.8,16.8c0,5.203-2.366,9.851-6.08,12.933c4.684-3.814,7.68-9.622,7.68-16.133
	c0-11.488-9.312-20.8-20.8-20.8c-11.487,0-20.8,9.312-20.8,20.8c0,11.487,9.313,20.8,20.8,20.8
	C76.364,395.2,80.409,393.851,83.754,391.554z"/>
<path style="fill:#AAA799;" d="M91.2,377.6c0-9.278-7.522-16.8-16.8-16.8s-16.8,7.522-16.8,16.8s7.522,16.8,16.8,16.8
	c3.463,0,6.68-1.05,9.354-2.846c0.473-0.318,0.929-0.659,1.366-1.021C88.834,387.451,91.2,382.803,91.2,377.6z"/>
<path style="fill:#BFBCA6;" d="M147.2,395.2c4.364,0,8.409-1.349,11.754-3.646c-2.674,1.796-5.891,2.846-9.354,2.846
	c-9.278,0-16.8-7.522-16.8-16.8s7.522-16.8,16.8-16.8s16.8,7.522,16.8,16.8c0,5.203-2.366,9.851-6.08,12.933
	c4.684-3.814,7.68-9.622,7.68-16.133c0-11.488-9.313-20.8-20.8-20.8c-11.488,0-20.8,9.312-20.8,20.8
	C126.4,385.887,135.712,395.2,147.2,395.2z"/>
<path style="fill:#AAA799;" d="M166.4,377.6c0-9.278-7.522-16.8-16.8-16.8s-16.8,7.522-16.8,16.8s7.522,16.8,16.8,16.8
	c3.463,0,6.68-1.05,9.354-2.846c0.473-0.318,0.929-0.659,1.366-1.021C164.034,387.451,166.4,382.803,166.4,377.6z"/>
<path style="fill:#BFBCA6;" d="M223.2,395.2c11.487,0,20.8-9.313,20.8-20.8c0-11.488-9.313-20.8-20.8-20.8
	c-11.488,0-20.8,9.312-20.8,20.8C202.4,385.887,211.712,395.2,223.2,395.2z M224.8,360.8c9.278,0,16.8,7.522,16.8,16.8
	s-7.522,16.8-16.8,16.8s-16.8-7.522-16.8-16.8S215.522,360.8,224.8,360.8z"/>
<circle style="fill:#AAA799;" cx="224.8" cy="377.6" r="16.8"/>
<path style="fill:#BFBCA6;" d="M319.2,374.4c0-11.488-9.313-20.8-20.8-20.8c-11.488,0-20.8,9.312-20.8,20.8
	c0,11.487,9.312,20.8,20.8,20.8c4.001,0,7.724-1.149,10.896-3.107c0.297-0.38,0.587-0.766,0.88-1.148
	c-2.826,2.158-6.346,3.455-10.176,3.455c-9.278,0-16.8-7.522-16.8-16.8s7.522-16.8,16.8-16.8s16.8,7.522,16.8,16.8
	c0,1.92-0.338,3.757-0.931,5.475c0.986-1.451,1.947-2.921,2.888-4.404C319.045,377.292,319.2,375.864,319.2,374.4z"/>
<path style="fill:#AAA799;" d="M300,360.8c-9.278,0-16.8,7.522-16.8,16.8s7.522,16.8,16.8,16.8c3.831,0,7.35-1.296,10.176-3.455
	c1.969-2.568,3.872-5.189,5.693-7.87c0.593-1.718,0.931-3.555,0.931-5.475C316.8,368.322,309.278,360.8,300,360.8z"/>
<path style="fill:#BFBCA6;" d="M128,431.2c0-11.488-9.313-20.8-20.8-20.8c-11.234,0-20.364,8.913-20.762,20.05
	c2.091,1.336,4.214,2.626,6.366,3.871c0.043-9.242,7.544-16.721,16.796-16.721c9.278,0,16.8,7.522,16.8,16.8
	c0,5.097-2.278,9.654-5.862,12.735c0.005,0.002,0.009,0.003,0.014,0.005C125.102,443.324,128,437.603,128,431.2z"/>
<path style="fill:#AAA799;" d="M126.4,434.4c0-9.278-7.522-16.8-16.8-16.8c-9.252,0-16.753,7.48-16.796,16.721
	c8.773,5.075,18.051,9.372,27.734,12.813C124.122,444.054,126.4,439.497,126.4,434.4z"/>
<path style="fill:#BFBCA6;" d="M204,431.2c0-11.488-9.313-20.8-20.8-20.8c-11.488,0-20.8,9.312-20.8,20.8
	c0,11.487,9.312,20.8,20.8,20.8S204,442.687,204,431.2z M168,434.4c0-9.278,7.522-16.8,16.8-16.8s16.8,7.522,16.8,16.8
	s-7.522,16.8-16.8,16.8S168,443.678,168,434.4z"/>
<circle style="fill:#AAA799;" cx="184.8" cy="434.4" r="16.8"/>
<path style="fill:#BFBCA6;" d="M258.4,410.4c-11.488,0-20.8,9.312-20.8,20.8c0,4.718,1.589,9.054,4.236,12.544
	c1.119-0.47,2.23-0.956,3.337-1.45c-1.256-2.354-1.973-5.04-1.973-7.894c0-9.278,7.522-16.8,16.8-16.8
	c6.056,0,11.348,3.216,14.304,8.022c1.11-0.792,2.209-1.598,3.298-2.416C274.469,415.687,267.054,410.4,258.4,410.4z"/>
<path style="fill:#AAA799;" d="M260,417.6c-9.278,0-16.8,7.522-16.8,16.8c0,2.855,0.717,5.54,1.973,7.894
	c10.299-4.595,20.052-10.191,29.131-16.672C271.348,420.816,266.056,417.6,260,417.6z"/>
<rect x="392" y="66.4" style="fill:#0FBCD3;" width="16" height="224"/>
<polyline style="fill:#00899B;" points="392,66.4 408,66.4 408,290.4 "/>
<circle style="fill:#0FBCD3;" cx="398.4" cy="57.6" r="15.2"/>
<circle style="fill:#00899B;" cx="400" cy="59.2" r="12"/>
<polygon style="fill:#CE3838;" points="408,71.2 408,129.6 500.8,100 "/>
<polygon style="fill:#A31A1A;" points="408,101.6 408,129.6 500.8,100 "/>
<g>
</g>
<g>
</g>
<g>
</g>
<g>
</g>
<g>
</g>
<g>
</g>
<g>
</g>
<g>
</g>
<g>
</g>
<g>
</g>
<g>
</g>
<g>
</g>
<g>
</g>
<g>
</g>
<g>
</g>
</svg>
