<?xml version="1.0" encoding="iso-8859-1"?>
<!-- Generator: Adobe Illustrator 19.0.0, SVG Export Plug-In . SVG Version: 6.00 Build 0)  -->
<svg version="1.1" id="Layer_1" xmlns="http://www.w3.org/2000/svg" xmlns:xlink="http://www.w3.org/1999/xlink" x="0px" y="0px"
	 viewBox="0 0 512.001 512.001" style="enable-background:new 0 0 512.001 512.001;" xml:space="preserve">
<g>
	
		<rect x="68.146" y="310.739" transform="matrix(0.7071 0.7071 -0.7071 0.7071 263.7433 0.3463)" style="fill:#1D1D1B;" width="126.615" height="15.601"/>
	<path style="fill:#1D1D1B;" d="M90.425,423c-6.892,6.892-10.689,16.056-10.689,25.806s3.796,18.913,10.689,25.806
		c6.892,6.892,16.057,10.689,25.806,10.689s18.913-3.796,25.806-10.69v0.001c6.892-6.892,10.69-16.056,10.69-25.806
		s-3.796-18.913-10.69-25.807C127.807,408.771,104.654,408.77,90.425,423z M131.004,463.579L131.004,463.579
		c-3.946,3.947-9.193,6.121-14.774,6.121s-10.828-2.174-14.774-6.121c-3.946-3.946-6.12-9.192-6.12-14.773s2.174-10.828,6.12-14.774
		c4.074-4.074,9.423-6.109,14.774-6.109c5.35,0,10.701,2.036,14.774,6.109c3.946,3.946,6.12,9.193,6.12,14.774
		S134.951,459.633,131.004,463.579z"/>
	<polygon style="fill:#1D1D1B;" points="305.019,245.865 316.017,256.929 361.942,211.289 437.86,211.289 437.86,195.688 
		355.508,195.688 	"/>
	
		<rect x="157.674" y="221.219" transform="matrix(0.7071 0.7071 -0.7071 0.7071 226.6647 -89.1791)" style="fill:#1D1D1B;" width="126.615" height="15.601"/>
	
		<rect x="106.852" y="439.327" transform="matrix(0.7071 0.7071 -0.7071 0.7071 349.8275 49.9218)" style="fill:#1D1D1B;" width="15.601" height="15.826"/>
	<path style="fill:#1D1D1B;" d="M247.937,464.746c-13.029,0-23.628,10.598-23.628,23.627c0,13.029,10.599,23.628,23.628,23.628
		c13.028,0,23.627-10.599,23.627-23.628C271.564,475.344,260.966,464.746,247.937,464.746z M247.937,496.399
		c-4.425,0-8.027-3.601-8.027-8.027c0-4.425,3.601-8.026,8.027-8.026s8.026,3.601,8.026,8.026
		C255.964,492.798,252.364,496.399,247.937,496.399z"/>
	<path style="fill:#1D1D1B;" d="M2.917,324.14l74.677,74.678c-2.098,1.624-4.125,3.378-6.048,5.302
		c-24.639,24.64-24.639,64.731,0,89.372c12.319,12.319,28.503,18.48,44.685,18.48s32.365-6.16,44.685-18.48
		c23.307-23.307,24.554-60.428,3.77-85.23l35.621-35.622l39.83,39.83v44.25h15.601v-50.712l-44.4-44.399l99.019-99.019
		L187.414,139.645L2.917,324.14z M149.884,482.459c-18.558,18.558-48.752,18.56-67.308,0c-18.557-18.557-18.557-48.75,0-67.307
		c9.278-9.279,21.467-13.918,33.654-13.918s24.376,4.639,33.654,13.918C168.442,433.709,168.442,463.903,149.884,482.459z
		 M153.274,397.61c-18.131-13.134-41.711-15.443-61.769-6.943L24.98,324.14l162.434-162.435l100.882,100.882L153.274,397.61z"/>
	<path style="fill:#1D1D1B;" d="M243.289,184.17l72.824-72.825l16.788,16.788l53.491-53.491c5.099-5.1,7.909-11.882,7.909-19.093
		s-2.808-13.992-7.909-19.092l-28.39-28.39c-10.756-10.754-28.254-10.754-39.01,0c-5.21,5.211-8.079,12.137-8.079,19.505
		c0,7.369,2.87,14.296,8.079,19.505l2.879,2.878l-33.574,33.574l16.786,16.786l-72.823,72.825L243.289,184.17z M343.932,49.953
		l-13.91-13.91c-2.263-2.263-3.509-5.271-3.509-8.472c0-3.2,1.246-6.21,3.51-8.472c4.672-4.672,12.274-4.672,16.946,0l28.39,28.39
		c4.445,4.444,4.445,11.678,0,16.122l-42.458,42.46l-22.543-22.543L343.932,49.953z"/>
	<path style="fill:#1D1D1B;" d="M466.801,128.293c0-7.368-2.87-14.295-8.079-19.505l-28.39-28.39
		c-5.099-5.099-11.88-7.909-19.091-7.909c0,0,0,0-0.001,0c-7.212,0-13.993,2.808-19.092,7.909l-53.49,53.492l16.786,16.786
		l-72.824,72.824l11.032,11.032l72.824-72.824l16.786,16.786l33.574-33.573l2.878,2.878c5.211,5.21,12.137,8.079,19.505,8.079
		c7.369,0,14.296-2.87,19.504-8.079C463.932,142.588,466.801,135.662,466.801,128.293z M447.69,136.766
		c-2.263,2.263-5.271,3.509-8.472,3.509c-3.2,0-6.21-1.246-8.473-3.51l-13.909-13.908l-33.574,33.573l-22.542-22.542l42.459-42.459
		c4.443-4.446,11.677-4.446,16.122,0l28.39,28.39c2.264,2.263,3.51,5.272,3.51,8.472
		C451.201,131.494,449.954,134.502,447.69,136.766z"/>
	<rect x="445.777" y="195.686" style="fill:#1D1D1B;" width="63.307" height="15.601"/>
</g>
<g>
</g>
<g>
</g>
<g>
</g>
<g>
</g>
<g>
</g>
<g>
</g>
<g>
</g>
<g>
</g>
<g>
</g>
<g>
</g>
<g>
</g>
<g>
</g>
<g>
</g>
<g>
</g>
<g>
</g>
</svg>
