<?xml version="1.0" encoding="iso-8859-1"?>
<!-- Generator: Adobe Illustrator 19.0.0, SVG Export Plug-In . SVG Version: 6.00 Build 0)  -->
<svg version="1.1" id="Layer_1" xmlns="http://www.w3.org/2000/svg" xmlns:xlink="http://www.w3.org/1999/xlink" x="0px" y="0px"
	 viewBox="0 0 512 512" style="enable-background:new 0 0 512 512;" xml:space="preserve">
<g>
	<g>
		<path d="M282.349,375.897c-20.737,0-49.719,11.834-65.413,19.025v-64.265v-15.208V0h-55.336v218.465h15.208V15.208h24.92v269.824
			h-24.92v-46.288h-15.208v76.705v15.208v113.291c0,37.524,30.528,68.052,68.052,68.052h52.696c37.523,0,68.05-30.528,68.05-68.052
			S319.872,375.897,282.349,375.897z M176.808,300.24h24.92v15.21h-24.92V300.24z M282.349,496.792h-52.697
			c-29.139,0-52.845-23.706-52.845-52.845V330.657h24.92l0.001,88.875l11.102-5.75c0.438-0.227,44.075-22.677,69.517-22.677
			c29.137,0,52.843,23.706,52.843,52.844C335.192,473.086,311.486,496.792,282.349,496.792z"/>
	</g>
</g>
<g>
	<g>
		<path d="M282.349,406.312v15.208c12.366,0,22.427,10.061,22.427,22.428h15.208C319.984,423.194,303.101,406.312,282.349,406.312z"
			/>
	</g>
</g>
<g>
</g>
<g>
</g>
<g>
</g>
<g>
</g>
<g>
</g>
<g>
</g>
<g>
</g>
<g>
</g>
<g>
</g>
<g>
</g>
<g>
</g>
<g>
</g>
<g>
</g>
<g>
</g>
<g>
</g>
</svg>
